HIERARCHY
ROOT Hips
{
	OFFSET 0.000000 0.000000 0.000000
	CHANNELS 6 Xposition Yposition Zposition Zrotation Yrotation Xrotation 
	JOINT LowerBack
	{
		OFFSET 0.000000 0.000000 0.000000
		CHANNELS 3 Zrotation Yrotation Xrotation
		JOINT Spine
		{
			OFFSET 0.028270 2.035590 -0.193380
			CHANNELS 3 Zrotation Yrotation Xrotation
			JOINT Spine1
			{
				OFFSET 0.056720 2.048850 -0.042750
				CHANNELS 3 Zrotation Yrotation Xrotation
				JOINT Neck
				{
					OFFSET 0.000000 0.000000 0.000000
					CHANNELS 3 Zrotation Yrotation Xrotation
					JOINT Neck1
					{
						OFFSET -0.054170 1.746240 0.172020
						CHANNELS 3 Zrotation Yrotation Xrotation
						JOINT Head
						{
							OFFSET 0.104070 1.761360 -0.123970
							CHANNELS 3 Zrotation Yrotation Xrotation
							End Site
							{
								OFFSET 0.000000 0.000000 0.000000
							}
						}
					}
				}
				JOINT LeftShoulder
				{
					OFFSET 0.000000 0.000000 0.000000
					CHANNELS 3 Zrotation Yrotation Xrotation
					JOINT LeftArm
					{
						OFFSET 3.362410 1.200890 -0.311210
						CHANNELS 3 Zrotation Yrotation Xrotation
						JOINT LeftForeArm
						{
							OFFSET 4.983000 -0.000000 -0.000000
							CHANNELS 3 Zrotation Yrotation Xrotation
							JOINT LeftHand
							{
								OFFSET 3.483560 -0.000000 -0.000000
								CHANNELS 3 Zrotation Yrotation Xrotation
								JOINT LeftFingerBase
								{
									OFFSET 0.000000 0.000000 0.000000
									CHANNELS 3 Zrotation Yrotation Xrotation
									JOINT LeftHandIndex1
									{
										OFFSET 0.715260 -0.000000 -0.000000
										CHANNELS 3 Zrotation Yrotation Xrotation
										End Site
										{
											OFFSET 0.000000 0.000000 0.000000
										}
									}
								}
								JOINT LThumb
								{
									OFFSET 0.000000 0.000000 0.000000
									CHANNELS 3 Zrotation Yrotation Xrotation
									End Site
									{
										OFFSET 0.000000 0.000000 0.000000
									}
								}
							}
						}
					}
				}
				JOINT RightShoulder
				{
					OFFSET 0.000000 0.000000 0.000000
					CHANNELS 3 Zrotation Yrotation Xrotation
					JOINT RightArm
					{
						OFFSET -3.136600 1.374050 -0.404650
						CHANNELS 3 Zrotation Yrotation Xrotation
						JOINT RightForeArm
						{
							OFFSET -5.241900 -0.000000 -0.000000
							CHANNELS 3 Zrotation Yrotation Xrotation
							JOINT RightHand
							{
								OFFSET -3.444170 -0.000000 -0.000000
								CHANNELS 3 Zrotation Yrotation Xrotation
								JOINT RightFingerBase
								{
									OFFSET 0.000000 0.000000 0.000000
									CHANNELS 3 Zrotation Yrotation Xrotation
									JOINT RightHandIndex1
									{
										OFFSET -0.622530 -0.000000 -0.000000
										CHANNELS 3 Zrotation Yrotation Xrotation
										End Site
										{
											OFFSET 0.000000 0.000000 0.000000
										}
									}
								}
								JOINT RThumb
								{
									OFFSET 0.000000 0.000000 0.000000
									CHANNELS 3 Zrotation Yrotation Xrotation
									End Site
									{
										OFFSET 0.000000 0.000000 0.000000
									}
								}
							}
						}
					}
				}
			}
		}
	}
}
}
MOTION
Frames: 18
Frame Time: 0.008333
3.061105 16.805505 0.902148 171.097146 -76.688870 -165.526419 -4.181532 -1.674008 -7.668879 -1.055452 -1.567827 -3.822323 -3.957744 -1.668306 1.991911 11.911957 -18.981577 -11.751853 -0.707358 0.002875 -1.013963 0.000000 0.000000 0.000000 9.283928 19.388079 0.323742 -40.687616 10.855589 -13.314603 -178.367851 -56.074508 -179.970245 -4.478350 -4.065651 0.184673 0.140606 0.516105 -0.000000 0.000000 0.000000 0.000000 0.000000 0.000000 0.000000 3.271096 -11.031493 -1.851318 29.266504 21.315402 -6.406455 -179.499520 58.853004 179.867991 -15.218522 5.529678 -0.847391 0.389425 -0.666864 -0.000000 0.000000 0.000000 0.000000 0.000000 0.000000 0.000000 
3.047517 16.821370 0.922035 172.220873 -74.398075 -166.679942 -3.587080 -1.547740 -7.747225 -0.869631 -1.489892 -3.845530 -3.707208 -1.598562 1.998468 11.778266 -18.704320 -11.836853 -0.665990 0.007347 -1.038567 0.000000 0.000000 0.000000 9.138940 19.809064 0.401437 -42.177307 12.020200 -13.371507 -178.283924 -55.262141 -179.966409 -5.082868 -3.292759 0.172978 0.159679 0.490925 0.000000 0.000000 0.000000 0.000000 0.000000 0.000000 0.000000 2.873228 -10.568734 -1.886694 28.965241 22.559764 -5.704961 -179.417863 58.854342 179.863803 -15.446027 5.503804 -0.857704 0.395203 -0.674398 -0.000000 0.000000 0.000000 0.000000 0.000000 0.000000 0.000000 
3.027654 16.843616 0.944650 173.143036 -72.021433 -167.606115 -2.904845 -1.434931 -7.864287 -0.664305 -1.434354 -3.868475 -3.455683 -1.550590 2.028911 11.606278 -18.467846 -11.918881 -0.631930 0.011139 -1.062321 0.000000 0.000000 0.000000 8.952108 20.269606 0.467654 -43.480895 12.980447 -13.371652 -178.209370 -54.457653 -179.962949 -5.639059 -2.428680 0.146575 0.178173 0.463077 0.000000 0.000000 0.000000 0.000000 0.000000 0.000000 0.000000 2.507447 -10.188493 -1.935586 28.595467 24.001422 -4.932147 -179.328453 58.870389 179.859432 -15.685494 5.481187 -0.869030 0.401205 -0.681986 -0.000000 0.000000 0.000000 0.000000 0.000000 0.000000 0.000000 
3.001541 16.871631 0.968669 173.909994 -69.584647 -168.341865 -2.139569 -1.335499 -8.025904 -0.443902 -1.401907 -3.893630 -3.217508 -1.524700 2.076892 11.396212 -18.282080 -11.995450 -0.608212 0.013953 -1.084566 0.000000 0.000000 0.000000 8.727074 20.736022 0.516986 -44.465330 13.702299 -13.248843 -178.148777 -53.655476 -179.960359 -6.062833 -1.520871 0.106281 0.193371 0.433988 0.000000 0.000000 0.000000 0.000000 0.000000 0.000000 0.000000 2.189012 -9.905312 -1.990459 28.164926 25.637493 -4.101284 -179.237175 58.901825 179.855017 -15.924893 5.465725 -0.881462 0.407463 -0.689734 -0.000000 0.000000 0.000000 0.000000 0.000000 0.000000 0.000000 
2.969810 16.904363 0.992596 174.558756 -67.112995 -168.916567 -1.298915 -1.247357 -8.235530 -0.213347 -1.390988 -3.924059 -3.006434 -1.518826 2.132490 11.152167 -18.151382 -12.060901 -0.597315 0.015499 -1.103864 0.000000 0.000000 0.000000 8.483580 21.160207 0.544715 -45.016026 14.158745 -12.935506 -178.107010 -52.866452 -179.959034 -6.281157 -0.628841 0.058012 0.202765 0.405565 0.000000 0.000000 0.000000 0.000000 0.000000 0.000000 0.000000 1.929377 -9.726744 -2.041425 27.686206 27.450692 -3.231373 -179.150468 58.945828 179.850699 -16.150809 5.459743 -0.894497 0.413996 -0.697814 -0.000000 0.000000 0.000000 0.000000 0.000000 0.000000 0.000000 
2.933828 16.940398 1.015138 175.121666 -64.633796 -169.361247 -0.392088 -1.165976 -8.491074 0.022366 -1.397214 -3.962155 -2.834791 -1.527877 2.184402 10.880519 -18.076173 -12.106425 -0.600638 0.015549 -1.118048 0.000000 0.000000 0.000000 8.253914 21.487839 0.547370 -45.043562 14.308578 -12.375173 -178.089456 -52.125935 -179.959261 -6.237653 0.178098 0.010790 0.204175 0.380338 0.000000 0.000000 0.000000 0.000000 0.000000 0.000000 0.000000 1.733737 -9.657100 -2.077977 27.177891 29.408876 -2.347501 -179.074693 59.001162 179.846604 -16.348677 5.464928 -0.907730 0.420675 -0.706433 -0.000000 0.000000 0.000000 0.000000 0.000000 0.000000 0.000000 
2.895314 16.978092 1.034981 175.619437 -62.180670 -169.695495 0.559330 -1.086636 -8.790128 0.255827 -1.414843 -4.010104 -2.713816 -1.545377 2.222248 10.596838 -18.048255 -12.117568 -0.619460 0.013811 -1.123426 0.000000 0.000000 0.000000 8.086533 21.657420 0.524619 -44.493023 14.101923 -11.543567 -178.102594 -51.503815 -179.961169 -5.900862 0.818869 -0.024871 0.195999 0.361585 0.000000 0.000000 0.000000 0.000000 0.000000 0.000000 0.000000 1.612692 -9.693464 -2.089091 26.654560 31.458495 -1.480694 -179.015280 59.065993 179.842850 -16.505128 5.478506 -0.920156 0.427274 -0.715656 -0.000000 0.000000 0.000000 0.000000 0.000000 0.000000 0.000000 
2.856727 17.015695 1.051406 176.068352 -59.795034 -169.947925 1.530073 -1.004188 -9.123391 0.479275 -1.436747 -4.067792 -2.652309 -1.563420 2.239304 10.321210 -18.056431 -12.075213 -0.652992 0.010134 -1.115087 0.000000 0.000000 0.000000 8.024931 21.618739 0.479739 -43.337708 13.453719 -10.460410 -178.153073 -51.116767 -179.964758 -5.266440 1.210754 -0.041255 0.177233 0.353127 0.000000 0.000000 0.000000 0.000000 0.000000 0.000000 0.000000 1.572986 -9.833425 -2.066831 26.136312 33.532812 -0.664489 -178.975679 59.139706 179.839527 -16.607847 5.498710 -0.930676 0.433320 -0.725531 -0.000000 0.000000 0.000000 0.000000 0.000000 0.000000 0.000000 
2.820406 17.051548 1.064117 176.480455 -57.527308 -170.144258 2.481551 -0.916427 -9.483002 0.682731 -1.457141 -4.134441 -2.656090 -1.575801 2.233321 10.084122 -18.083808 -11.954613 -0.699183 0.004395 -1.086399 0.000000 0.000000 0.000000 8.105691 21.327798 0.420918 -41.582824 12.274459 -9.210189 -178.247855 -51.120712 -179.969924 -4.363748 1.283573 -0.036660 0.148102 0.358579 0.000000 0.000000 0.000000 0.000000 0.000000 0.000000 0.000000 1.628249 -10.069730 -2.006143 25.638151 35.548752 0.065514 -178.956547 59.219920 179.836710 -16.648067 5.519620 -0.937892 0.438190 -0.735858 -0.000000 0.000000 0.000000 0.000000 0.000000 0.000000 0.000000 
2.788860 17.084296 1.073343 176.861120 -55.435778 -170.312053 3.367097 -0.826101 -9.859077 0.855929 -1.473572 -4.208232 -2.724641 -1.580263 2.205432 9.923148 -18.111730 -11.728869 -0.753265 -0.003317 -1.029905 0.000000 0.000000 0.000000 8.339904 20.756126 0.360650 -39.254073 10.486841 -7.938975 -178.393952 -51.706355 -179.976534 -3.248197 1.008792 -0.018395 0.110336 0.379756 0.000000 0.000000 0.000000 0.000000 0.000000 0.000000 0.000000 1.794197 -10.391188 -1.906896 25.172164 37.415708 0.676557 -178.955233 59.308652 179.834470 -16.620862 5.535359 -0.940513 0.441026 -0.746188 -0.000000 0.000000 0.000000 0.000000 0.000000 0.000000 0.000000 
2.764088 17.112966 1.079894 177.218438 -53.581593 -170.480750 4.135815 -0.743501 -10.240527 0.989982 -1.489674 -4.287304 -2.848599 -1.581518 2.157219 9.880948 -18.121572 -11.375697 -0.807076 -0.012587 -0.939057 0.000000 0.000000 0.000000 8.706236 19.891439 0.314264 -36.384616 8.069776 -6.828844 -178.597748 -53.084239 -179.984552 -1.978413 0.422703 0.000215 0.066985 0.414903 0.000000 0.000000 0.000000 0.000000 0.000000 0.000000 0.000000 2.084657 -10.779466 -1.774835 24.748238 39.042710 1.141868 -178.966106 59.409121 179.832893 -16.525593 5.539374 -0.937254 0.440883 -0.755746 -0.000000 0.000000 0.000000 0.000000 0.000000 0.000000 0.000000 
2.747413 17.137007 1.085028 177.560941 -52.021953 -170.676395 4.740293 -0.688322 -10.612139 1.080182 -1.517488 -4.369741 -3.006821 -1.593647 2.087765 9.998068 -18.097520 -10.888431 -0.849739 -0.022605 -0.811261 0.000000 0.000000 0.000000 9.158679 18.737043 0.296680 -33.014998 5.098344 -6.049638 -178.861416 -55.454041 -179.994164 -0.587341 -0.378665 0.005042 0.021806 0.458337 0.000000 0.000000 0.000000 0.000000 0.000000 0.000000 0.000000 2.504392 -11.208187 -1.622365 24.376569 40.355595 1.445279 -178.982031 59.522591 179.832101 -16.365554 5.525738 -0.927226 0.436986 -0.763540 -0.000000 0.000000 0.000000 0.000000 0.000000 0.000000 0.000000 
2.739422 17.156392 1.090141 177.898247 -50.803641 -170.918261 5.145461 -0.688539 -10.952251 1.128144 -1.577300 -4.453324 -3.167127 -1.639659 1.991417 10.300043 -18.028886 -10.283914 -0.869950 -0.032298 -0.650191 0.000000 0.000000 0.000000 9.650261 17.302629 0.319419 -29.211108 1.767562 -5.708432 -179.174391 -58.983751 179.994207 0.932758 -1.275825 -0.013849 -0.021673 0.502281 0.000000 0.000000 0.000000 0.000000 0.000000 0.000000 0.000000 3.039567 -11.644874 -1.467614 24.069095 41.308234 1.584243 -178.996603 59.650871 179.832215 -16.147428 5.489404 -0.910143 0.428966 -0.768512 -0.000000 0.000000 0.000000 0.000000 0.000000 0.000000 0.000000 
2.739995 17.171415 1.096661 178.235558 -49.958717 -171.214878 5.337587 -0.775291 -11.233976 1.142268 -1.694308 -4.534709 -3.292816 -1.747379 1.860244 10.783708 -17.912599 -9.603186 -0.860062 -0.040668 -0.466253 0.000000 0.000000 0.000000 10.164391 15.596474 0.387856 -25.105627 -1.634632 -5.816436 -179.502734 -63.782365 179.980104 2.616092 -2.162356 -0.061986 -0.060863 0.539812 0.000000 0.000000 0.000000 0.000000 0.000000 0.000000 0.000000 3.652513 -12.058458 -1.331687 23.845178 41.894663 1.572134 -179.006373 59.794979 179.833345 -15.880272 5.427084 -0.886106 0.417079 -0.769862 -0.000000 0.000000 0.000000 0.000000 0.000000 0.000000 0.000000 
2.748110 17.182705 1.105694 178.572176 -49.503463 -171.562390 5.328843 -0.975287 -11.430691 1.135200 -1.893017 -4.608656 -3.355170 -1.942782 1.690592 11.410303 -17.752941 -8.901266 -0.818693 -0.047066 -0.274087 0.000000 0.000000 0.000000 10.723314 13.628285 0.503134 -20.911187 -4.815754 -6.283780 -179.789391 -69.888739 179.963371 4.491674 -2.966012 -0.140187 -0.094820 0.567225 0.000000 0.000000 0.000000 0.000000 0.000000 0.000000 0.000000 4.283997 -12.428535 -1.234475 23.733415 42.150928 1.439216 -179.011188 59.956796 179.835508 -15.574213 5.336949 -0.855507 0.402101 -0.767242 -0.000000 0.000000 0.000000 0.000000 0.000000 0.000000 0.000000 
2.762329 17.191048 1.117917 178.897730 -49.439596 -171.949386 5.154014 -1.302608 -11.522748 1.119663 -2.189717 -4.667613 -3.342842 -2.241828 1.490770 12.113782 -17.561840 -8.234135 -0.749181 -0.051126 -0.089221 0.000000 0.000000 0.000000 11.364104 11.434511 0.667442 -16.877839 -7.611291 -6.949555 -179.977263 -77.282248 179.944372 6.557091 -3.625179 -0.244368 -0.124579 0.584161 0.000000 0.000000 0.000000 0.000000 0.000000 0.000000 0.000000 4.863707 -12.754424 -1.192197 23.772008 42.142389 1.227047 -179.011961 60.137026 179.838627 -15.239901 5.219016 -0.819630 0.384968 -0.760770 -0.000000 0.000000 0.000000 0.000000 0.000000 0.000000 0.000000 
2.780865 17.197322 1.133566 179.196280 -49.755063 -172.359791 4.857892 -1.755802 -11.502493 1.105165 -2.588010 -4.702798 -3.260392 -2.646359 1.283145 12.820202 -17.356473 -7.650132 -0.656076 -0.052543 0.074325 0.000000 0.000000 0.000000 12.102891 9.107882 0.887752 -13.210070 -10.073294 -7.645781 179.959343 -85.912559 179.923987 8.754135 -4.067754 -0.361628 -0.152467 0.592724 -0.000000 0.000000 0.000000 0.000000 0.000000 0.000000 0.000000 5.326965 -13.054923 -1.216954 23.999366 41.940375 0.980000 -179.007720 60.336937 179.842539 -14.888536 5.075157 -0.779564 0.366369 -0.750798 -0.000000 0.000000 0.000000 0.000000 0.000000 0.000000 0.000000 
2.801717 17.202313 1.152323 179.450055 -50.421313 -172.774367 4.478839 -2.321200 -11.374436 1.097238 -3.079231 -4.706695 -3.116448 -3.145754 1.097229 13.466504 -17.152227 -7.186059 -0.542507 -0.050943 0.205399 0.000000 0.000000 0.000000 12.929251 6.801318 1.172133 -10.027103 -12.447637 -8.266238 0.001795 -84.271454 -0.096535 10.952359 -4.235391 -0.469661 -0.181134 0.596418 -0.000000 0.000000 0.000000 0.000000 0.000000 0.000000 0.000000 5.624743 -13.355264 -1.317761 24.442248 41.598914 0.735324 -178.993825 60.552720 179.847024 -14.531797 4.910102 -0.737096 0.346593 -0.737817 -0.000000 0.000000 0.000000 0.000000 0.000000 0.000000 0.000000 
